<?xml version="1.0" encoding="utf-8"?>
<svg xmlns="http://www.w3.org/2000/svg" width="60cm" height="10cm" viewBox="0 0 600.00003 99.999996" version="1.1" id="svg4515">
  <g style="" transform="matrix(0.41703, 0, 0, 0.41703, 133.669696, -46.969903)">
    <path d="M 97.811 108.968 C 99.811 110.968 99.811 110.968 100.123 114.718 C 100.008 119.902 98.83 124.714 97.67 129.75 C 96.362 135.797 95.667 141.941 94.868 148.071 C 94.266 152.667 93.639 157.23 92.748 161.781 C 91.707 167.105 91.157 172.465 90.56 177.852 C 90.067 182.167 89.354 186.286 88.307 190.492 C 87.604 193.999 87.256 197.54 86.873 201.093 C 86.138 207.872 84.961 214.446 83.525 221.117 C 82.595 226.13 82.08 231.163 81.721 236.248 C 81.289 240.946 80.331 243.761 76.811 246.968 C 74.732 247.308 74.732 247.308 72.561 246.906 C 71.854 246.791 71.148 246.676 70.42 246.558 C 68.283 246.075 66.159 245.532 64.041 244.972 C 59.842 243.909 55.677 243.399 51.373 242.968 C 46.229 242.411 41.248 241.751 36.221 240.492 C 33.38 239.875 30.544 239.483 27.662 239.093 C 22.125 238.318 16.609 237.461 11.096 236.531 C 10.344 236.404 9.592 236.277 8.818 236.147 C 5.73 235.624 2.642 235.099 -0.446 234.573 C -9.607 233.013 -18.758 231.583 -27.975 230.393 C -31.799 229.888 -35.58 229.273 -39.377 228.593 C -40.069 228.47 -40.76 228.347 -41.473 228.221 C -45.365 227.518 -49.242 226.76 -53.115 225.957 C -62.533 224.004 -71.815 222.388 -81.393 221.461 C -84.184 221.099 -86.648 220.644 -89.346 219.937 C -92.513 219.139 -95.204 218.729 -98.439 218.593 C -101.55 218.296 -103.1 218.016 -105.88 216.468 C -107.35 213.669 -107.26 212.884 -106.86 209.847 C -106.75 209.045 -106.65 208.243 -106.54 207.416 C -106.01 203.738 -105.44 200.07 -104.81 196.406 C -104.68 195.629 -104.55 194.853 -104.42 194.052 C -102.57 183.256 -100.57 172.52 -98.127 161.843 C -96.649 155.377 -95.557 148.95 -94.682 142.371 C -94.143 138.648 -93.485 134.97 -92.752 131.281 C -92.526 130.143 -92.301 129.004 -92.068 127.832 C -91.16 124.874 -90.667 123.746 -88.189 121.968 C -84 119.935 -79.948 119.499 -75.365 119.187 C -74.599 119.129 -73.833 119.07 -73.044 119.01 C -70.53 118.821 -68.016 118.645 -65.502 118.468 C -63.742 118.339 -61.981 118.21 -60.221 118.08 C -47.599 117.16 -34.97 116.377 -22.334 115.668 C -13.51 115.172 -4.693 114.601 4.123 113.968 C 16.037 113.116 27.957 112.46 39.885 111.845 C 49.979 111.323 60.049 110.68 70.123 109.843 C 89.993 108.222 89.993 108.222 97.811 108.968 Z" fill="#FEFEFE" style="stroke-width: 1;"/>
    <path d="M -96.525 224.429 C -95.73 224.58 -94.935 224.731 -94.116 224.886 C -91.597 225.364 -89.081 225.853 -86.564 226.343 C -83.261 226.982 -79.956 227.614 -76.65 228.242 C -75.849 228.394 -75.048 228.547 -74.222 228.704 C -67.898 229.886 -61.567 230.79 -55.18 231.561 C -52.768 231.889 -50.527 232.311 -48.189 232.968 C -44.578 233.97 -40.969 234.434 -37.252 234.906 C -29.658 235.871 -22.148 237.168 -14.618 238.534 C -11.981 239.006 -9.342 239.459 -6.701 239.91 C 2.666 241.51 12.003 243.175 21.311 245.093 C 26.842 246.231 32.324 247.228 37.936 247.906 C 45.174 248.804 52.328 250.074 59.498 251.406 C 61.22 251.714 61.22 251.714 62.977 252.029 C 64.06 252.234 65.144 252.44 66.26 252.652 C 67.233 252.833 68.205 253.014 69.208 253.201 C 71.969 254.015 73.639 255.106 75.811 256.968 C 72.433 265.331 60.551 270.3 52.811 273.968 C 52.151 273.968 51.491 273.968 50.811 273.968 C 50.811 274.628 50.811 275.288 50.811 275.968 C 50.046 276.369 49.282 276.77 48.494 277.183 C 38.058 282.721 27.747 288.53 17.998 295.218 C 14.14 297.859 10.105 299.905 5.877 301.89 C 3.667 302.912 3.667 302.912 1.811 304.968 C -4.831 305.571 -10.127 304.034 -16.377 301.906 C -17.334 301.591 -18.291 301.276 -19.277 300.951 C -22.252 299.968 -25.221 298.97 -28.189 297.968 C -30.002 297.363 -31.814 296.759 -33.627 296.156 C -36.253 295.281 -38.879 294.405 -41.503 293.525 C -47.979 291.355 -54.482 289.282 -61.002 287.246 C -68.031 285.042 -75.015 282.707 -81.986 280.328 C -85.755 279.054 -89.498 277.849 -93.365 276.91 C -97.059 276 -100.59 274.888 -104.19 273.656 C -112.15 270.961 -120.16 268.451 -128.19 265.968 C -136.65 263.349 -145.12 260.723 -153.58 258.089 C -156.99 257.032 -160.4 255.983 -163.81 254.937 C -165.79 254.323 -167.77 253.708 -169.75 253.093 C -170.66 252.82 -171.56 252.546 -172.49 252.264 C -180.01 249.911 -180.01 249.911 -183.19 246.968 C -183 244.156 -183 244.156 -182.19 240.968 C -173.89 233.743 -158.33 232.945 -147.94 230.968 C -144.72 230.336 -141.63 229.523 -138.5 228.531 C -132.92 226.784 -127.24 225.711 -121.51 224.617 C -119.75 224.272 -117.98 223.911 -116.25 223.437 C -109.73 221.95 -102.98 223.145 -96.525 224.429 Z" fill="#FEFEFE" style="stroke-width: 1;"/>
    <path d="M 565.81 197.968 C 571.525 201.472 575.207 205.338 578.81 210.968 C 579.491 210.267 580.172 209.566 580.873 208.843 C 590.165 199.63 599.077 193.994 612.56 193.656 C 621.178 193.794 629.407 194.748 635.81 200.968 C 636.842 201.773 637.873 202.577 638.935 203.406 C 641.657 205.832 643.132 207.778 644.81 210.968 C 645.8 212.453 645.8 212.453 646.81 213.968 C 650.815 225.093 651.368 235.542 651.236 247.242 C 651.231 248.944 651.228 250.647 651.226 252.349 C 651.219 255.881 651.198 259.412 651.167 262.943 C 651.127 267.477 651.11 272.011 651.1 276.545 C 651.09 280.881 651.07 285.218 651.049 289.554 C 651.045 290.382 651.042 291.209 651.038 292.061 C 651.027 294.382 651.008 296.703 650.987 299.025 C 650.985 299.717 650.982 300.41 650.979 301.124 C 650.925 305.853 650.925 305.853 649.81 306.968 C 648.042 307.068 646.269 307.099 644.498 307.101 C 643.423 307.102 642.348 307.104 641.24 307.105 C 640.108 307.101 638.977 307.097 637.81 307.093 C 636.679 307.097 635.547 307.101 634.381 307.105 C 633.306 307.104 632.231 307.103 631.123 307.101 C 630.129 307.1 629.135 307.099 628.111 307.098 C 625.81 306.968 625.81 306.968 624.81 305.968 C 624.713 303.746 624.685 301.521 624.685 299.296 C 624.682 298.25 624.682 298.25 624.679 297.182 C 624.675 295.661 624.673 294.14 624.672 292.618 C 624.669 289.377 624.648 286.136 624.627 282.895 C 624.589 276.857 624.558 270.819 624.56 264.781 C 624.561 260.585 624.537 256.389 624.498 252.193 C 624.488 250.598 624.486 249.003 624.494 247.409 C 624.621 234.845 624.621 234.845 618.81 223.968 C 614.831 220.594 610.407 219.13 605.221 218.73 C 599.336 219.312 593.724 222.602 589.81 226.968 C 584.956 235.076 585.223 243.871 585.236 253.004 C 585.224 254.534 585.209 256.064 585.193 257.594 C 585.156 261.591 585.14 265.586 585.131 269.583 C 585.111 276.009 585.054 282.436 585.002 288.862 C 584.986 291.105 584.979 293.348 584.974 295.591 C 584.967 296.954 584.96 298.317 584.952 299.68 C 584.949 300.873 584.945 302.066 584.942 303.296 C 584.81 305.968 584.81 305.968 583.81 306.968 C 582.042 307.068 580.269 307.099 578.498 307.101 C 577.423 307.102 576.348 307.104 575.24 307.105 C 574.108 307.101 572.977 307.097 571.81 307.093 C 570.679 307.097 569.547 307.101 568.381 307.105 C 567.306 307.104 566.231 307.103 565.123 307.101 C 564.129 307.1 563.135 307.099 562.111 307.098 C 559.81 306.968 559.81 306.968 558.81 305.968 C 558.702 303.808 558.664 301.643 558.653 299.48 C 558.648 298.802 558.643 298.124 558.637 297.425 C 558.627 295.946 558.618 294.468 558.611 292.989 C 558.599 290.642 558.58 288.296 558.558 285.949 C 558.497 279.275 558.443 272.601 558.409 265.927 C 558.388 261.847 558.353 257.768 558.308 253.688 C 558.294 252.138 558.286 250.588 558.282 249.038 C 558.257 235.342 558.257 235.342 552.81 222.968 C 546.688 219.463 541.636 218.262 534.81 219.968 C 532.781 220.908 530.772 221.894 528.81 222.968 C 528.15 222.968 527.49 222.968 526.81 222.968 C 526.522 223.546 526.233 224.123 525.935 224.718 C 525.239 226.11 524.515 227.489 523.748 228.843 C 521.634 233.636 521.671 238.822 521.605 243.984 C 521.59 244.994 521.59 244.994 521.575 246.026 C 521.544 248.233 521.519 250.441 521.494 252.648 C 521.474 254.186 521.453 255.725 521.431 257.263 C 521.376 261.298 521.327 265.332 521.278 269.366 C 521.228 273.489 521.172 277.611 521.117 281.734 C 521.01 289.812 520.908 297.89 520.81 305.968 C 518.201 307.273 516.283 307.081 513.365 307.066 C 511.751 307.061 511.751 307.061 510.103 307.056 C 508.976 307.048 507.848 307.04 506.685 307.031 C 505.55 307.026 504.414 307.022 503.244 307.017 C 500.433 307.005 497.622 306.989 494.81 306.968 C 494.787 292.643 494.77 278.318 494.759 263.994 C 494.753 257.343 494.746 250.692 494.735 244.041 C 494.724 237.628 494.718 231.216 494.716 224.803 C 494.714 222.351 494.71 219.898 494.705 217.446 C 494.698 214.024 494.697 210.602 494.697 207.18 C 494.693 206.155 494.69 205.13 494.686 204.074 C 494.687 203.147 494.689 202.22 494.69 201.265 C 494.689 200.454 494.688 199.644 494.687 198.809 C 494.81 196.968 494.81 196.968 495.81 195.968 C 497.579 195.869 499.352 195.838 501.123 195.836 C 502.198 195.834 503.273 195.833 504.381 195.832 C 505.513 195.836 506.644 195.839 507.81 195.843 C 508.942 195.84 510.074 195.836 511.24 195.832 C 512.315 195.833 513.39 195.834 514.498 195.836 C 515.989 195.837 515.989 195.837 517.51 195.839 C 519.81 195.968 519.81 195.968 520.81 196.968 C 521.265 199.623 521.513 202.29 521.81 204.968 C 522.491 204.226 523.172 203.483 523.873 202.718 C 534.675 191.977 552.792 190.539 565.81 197.968 Z" fill="#FEFEFE" style="stroke-width: 1;"/>
    <path d="M 251.678 162.324 C 253.373 163.656 253.373 163.656 255.811 165.968 C 255.811 166.628 255.811 167.288 255.811 167.968 C 257.131 168.628 258.451 169.288 259.811 169.968 C 259.811 170.628 259.811 171.288 259.811 171.968 C 261.296 172.463 261.296 172.463 262.811 172.968 C 268.248 179.089 271.636 187.158 273.811 194.968 C 272.811 197.968 272.811 197.968 270.061 199.406 C 255.829 204.968 255.829 204.968 248.811 204.968 C 248.58 204.4 248.349 203.831 248.111 203.246 C 243.808 193.058 238.674 186.491 228.811 180.968 C 216.353 176.482 204.99 176.931 192.811 181.968 C 189.802 183.672 187.317 185.594 184.811 187.968 C 184.292 188.447 183.774 188.925 183.24 189.418 C 174.027 198.993 170.545 211.047 169.811 223.968 C 169.741 225.11 169.671 226.253 169.6 227.429 C 169.078 244.979 172.685 260.807 184.811 273.968 C 193.397 282.001 202.516 284.624 214.054 284.507 C 224.355 284.079 232.39 280.346 239.838 273.222 C 244.096 268.358 246.968 262.733 249.811 256.968 C 254.69 257.581 258.979 259.042 263.498 260.906 C 264.161 261.171 264.824 261.436 265.508 261.709 C 268.508 262.926 271.107 264.166 273.811 265.968 C 271.293 280.388 262.832 291.181 251.498 300.179 C 235.644 310.733 215.396 313.027 196.998 309.718 C 190.968 308.381 185.404 306.575 179.811 303.968 C 178.759 303.494 177.707 303.02 176.623 302.531 C 173.102 300.575 169.99 298.449 166.811 295.968 C 166.811 295.308 166.811 294.648 166.811 293.968 C 165.923 293.58 165.923 293.58 165.018 293.183 C 153.698 286.952 147.215 271.031 143.717 259.3 C 137.893 237.988 138.935 216.9 145.811 195.968 C 146.097 195.074 146.383 194.179 146.678 193.257 C 149.166 186.277 153.239 180.747 157.811 174.968 C 158.675 173.855 158.675 173.855 159.557 172.718 C 161.123 170.781 161.123 170.781 163.811 167.968 C 164.801 167.968 165.791 167.968 166.811 167.968 C 167.081 167.118 167.081 167.118 167.357 166.25 C 172.139 158.743 186.404 153.603 194.662 151.562 C 214.308 148.25 235.267 150.411 251.678 162.324 Z" fill="#FEFEFE" style="stroke-width: 1;"/>
    <path d="M 740.623 201.531 C 752.834 211.09 759.546 225.309 761.498 240.468 C 762.723 254.6 762.723 254.6 759.811 258.968 C 756.837 259.329 756.837 259.329 752.974 259.309 C 751.92 259.31 751.92 259.31 750.845 259.31 C 748.518 259.308 746.192 259.285 743.865 259.261 C 742.254 259.256 740.642 259.251 739.031 259.248 C 734.786 259.237 730.542 259.208 726.297 259.174 C 721.967 259.144 717.637 259.13 713.307 259.115 C 704.808 259.083 696.309 259.031 687.811 258.968 C 688.547 261.536 689.299 264.096 690.061 266.656 C 690.266 267.377 690.47 268.098 690.682 268.841 C 692.855 276.053 696.219 280.123 702.811 283.968 C 709.314 286.16 718.086 286.123 724.619 284.097 C 728.605 282.047 731.062 279.912 733.498 276.156 C 735.811 272.968 735.811 272.968 738.686 272.343 C 742.355 273.077 745.397 274.438 748.811 275.968 C 750.261 276.372 751.72 276.748 753.186 277.093 C 756.811 277.968 756.811 277.968 757.811 278.968 C 758.686 284.113 757.667 286.709 754.748 291.031 C 746.622 301.805 736.143 307.741 722.811 309.968 C 707.187 311.717 692.845 309.226 680.244 299.265 C 676.034 295.292 672.846 290.878 669.811 285.968 C 669.317 285.177 668.823 284.385 668.314 283.57 C 659.472 267.773 659.952 247.794 664.607 230.793 C 666.934 223.034 670.747 216.264 675.811 209.968 C 676.471 209.968 677.131 209.968 677.811 209.968 C 678.12 209.133 678.12 209.133 678.436 208.281 C 682.709 201.093 691.779 196.678 699.619 194.511 C 713.945 192.074 728.341 193.349 740.623 201.531 Z M 694.811 224.968 C 694.089 225.711 693.367 226.453 692.623 227.218 C 690.084 230.715 690.084 230.715 688.811 238.968 C 704.321 238.968 719.831 238.968 735.811 238.968 C 732.387 229.553 729.937 223.386 721.811 217.968 C 711.539 214.856 701.953 216.861 694.811 224.968 Z" fill="#FEFEFE" style="stroke-width: 1;"/>
    <path d="M 366.811 202.968 C 366.811 203.628 366.811 204.288 366.811 204.968 C 367.379 205.021 367.947 205.074 368.533 205.128 C 374.734 207.415 379.683 217.355 382.686 222.968 C 390.517 239.981 390.471 258.757 384.061 276.156 C 378.07 289.713 370.633 300.299 356.498 305.972 C 355.611 306.301 354.724 306.63 353.811 306.968 C 353.068 307.287 352.326 307.605 351.561 307.933 C 339.806 312.361 325.397 311.324 313.959 306.578 C 299.556 299.215 290.383 288.347 284.811 273.261 C 279.219 255.761 280.814 236.449 288.811 219.968 C 294.779 210.013 302.785 201.172 313.811 196.968 C 314.562 196.671 315.314 196.373 316.088 196.066 C 333.268 190.322 351.687 193.769 366.811 202.968 Z M 316.811 223.968 C 316.13 224.69 315.449 225.412 314.748 226.156 C 309.411 233.904 308.115 241.58 308.248 250.843 C 308.256 251.899 308.264 252.954 308.272 254.042 C 308.477 262.015 309.579 268.086 313.811 274.968 C 314.156 275.595 314.501 276.221 314.857 276.867 C 317.603 281.48 320.989 284.24 325.936 286.218 C 333.581 287.698 341.979 288.301 348.811 283.968 C 353.612 279.679 356.736 275.087 358.811 268.968 C 359.088 268.168 359.365 267.367 359.65 266.543 C 363.731 253.549 362.604 240.421 356.42 228.226 C 352.35 221.693 347.408 217.756 339.811 215.968 C 330.759 214.991 322.789 216.794 316.811 223.968 Z" fill="#FEFEFE" style="stroke-width: 1;"/>
    <path d="M 466.725 201.355 C 469.65 203.617 471.612 205.994 473.811 208.968 C 474.491 209.587 475.172 210.206 475.873 210.843 C 479.293 214.594 481.637 218.881 482.061 223.968 C 481.978 224.628 481.896 225.288 481.811 225.968 C 477.071 227.548 472.214 227.471 467.248 227.718 C 466.181 227.787 465.115 227.855 464.016 227.925 C 462.998 227.976 461.98 228.026 460.932 228.078 C 459.531 228.155 459.531 228.155 458.101 228.233 C 457.345 228.146 456.589 228.058 455.811 227.968 C 453.811 224.968 453.811 224.968 453.811 221.968 C 453.151 221.968 452.491 221.968 451.811 221.968 C 451.316 219.988 451.316 219.988 450.811 217.968 C 450.254 217.845 449.697 217.721 449.123 217.593 C 446.811 216.968 446.811 216.968 444.561 215.906 C 438.466 213.828 434.127 214.549 428.436 217.218 C 424.941 218.971 423.119 220.217 421.811 223.968 C 421.949 227.293 422.378 229.329 424.248 232.093 C 430.789 236.88 437.953 238.282 445.811 239.468 C 457.914 241.31 466.882 244.905 475.561 253.781 C 482.042 262.962 483.356 271.889 481.811 282.968 C 479.834 289.664 476.094 294.506 470.811 298.968 C 470.151 298.968 469.491 298.968 468.811 298.968 C 468.811 299.628 468.811 300.288 468.811 300.968 C 455.643 309.468 441.552 311.833 426.302 308.834 C 418.764 307.183 412.785 305.018 406.811 299.968 C 406.105 299.444 405.4 298.919 404.674 298.378 C 399.355 294.2 395.966 289.414 393.811 282.968 C 393.498 280.289 393.498 280.289 393.811 277.968 C 397.347 275.611 400.651 275.025 404.748 274.281 C 405.464 274.138 406.18 273.996 406.918 273.849 C 413.99 272.532 413.99 272.532 416.811 273.968 C 418.338 275.929 418.338 275.929 419.748 278.343 C 422.076 282.022 423.734 284.179 427.811 285.968 C 428.904 286.525 429.997 287.082 431.123 287.656 C 437.751 290.015 442.233 289.465 448.686 287.031 C 451.649 285.584 453.379 284.723 455.025 281.843 C 456.225 277.201 456.188 273.229 453.811 268.968 C 447.666 263.592 439.734 262.268 431.904 260.898 C 418.683 258.581 408.918 255.112 400.365 244.109 C 395.916 236.924 395.341 230.087 396.811 221.968 C 396.912 221.286 397.014 220.605 397.119 219.902 C 398.174 214.343 400.855 210.01 404.811 205.968 C 405.471 205.968 406.131 205.968 406.811 205.968 C 406.811 205.308 406.811 204.648 406.811 203.968 C 424.11 191.439 448.454 189.44 466.725 201.355 Z" fill="#FEFEFE" style="stroke-width: 1;"/>
    <path d="M 966.248 201.281 C 967.794 202.478 969.317 203.706 970.811 204.968 C 971.456 205.503 972.102 206.038 972.768 206.589 C 979.083 212.327 984.157 220.339 984.811 228.968 C 981.77 232.009 978.075 232.53 973.998 233.656 C 973.19 233.894 972.383 234.132 971.551 234.377 C 963.49 236.628 963.49 236.628 959.811 234.968 C 957.924 232.64 957.924 232.64 956.123 229.718 C 952.171 224.016 948.515 220.901 941.811 218.968 C 934.704 217.768 928.96 219.349 922.811 222.968 C 916.304 227.668 913.33 236.836 912.092 244.476 C 911.055 253.662 911.534 263.523 916.416 271.636 C 917.811 273.968 917.811 273.968 917.811 276.968 C 919.131 277.628 920.451 278.288 921.811 278.968 C 921.811 279.628 921.811 280.288 921.811 280.968 C 922.397 281.1 922.984 281.231 923.588 281.367 C 925.811 281.968 925.811 281.968 929.373 283.593 C 934.609 285.549 939.434 285.364 944.811 283.968 C 951.932 280.381 956.448 276.173 959.811 268.968 C 965.78 269.283 971.138 270.485 976.811 272.281 C 977.482 272.482 978.153 272.682 978.844 272.889 C 983.466 274.418 983.466 274.418 984.928 276.75 C 984.479 285.239 977.021 293.62 971.045 299.105 C 959.125 309.045 945.154 311.195 930.026 310.196 C 920.781 309.246 913.033 305.685 905.811 299.968 C 904.832 299.209 903.854 298.45 902.846 297.668 C 892.523 288.988 886.041 275.227 884.811 261.968 C 883.69 242.011 886.564 224.68 899.811 208.968 C 905.174 203.885 910.94 199.719 917.811 196.968 C 918.487 196.671 919.164 196.373 919.861 196.066 C 934.311 190.65 953.521 192.796 966.248 201.281 Z" fill="#FEFEFE" style="stroke-width: 1;"/>
    <path d="M 787.123 167.836 C 788.198 167.834 789.273 167.833 790.381 167.832 C 791.513 167.835 792.644 167.839 793.811 167.843 C 794.942 167.839 796.074 167.836 797.24 167.832 C 798.315 167.833 799.39 167.834 800.498 167.836 C 801.492 167.837 802.486 167.838 803.51 167.839 C 805.811 167.968 805.811 167.968 806.811 168.968 C 806.898 170.968 806.918 172.971 806.908 174.972 C 806.905 176.187 806.902 177.402 806.898 178.654 C 806.886 180.573 806.886 180.573 806.873 182.531 C 806.869 183.814 806.864 185.097 806.859 186.42 C 806.848 189.602 806.83 192.785 806.811 195.968 C 815.391 195.968 823.971 195.968 832.811 195.968 C 832.811 203.228 832.811 210.488 832.811 217.968 C 824.231 217.968 815.651 217.968 806.811 217.968 C 806.857 225.551 806.908 233.132 806.994 240.715 C 807.034 244.246 807.066 247.777 807.082 251.308 C 807.1 255.365 807.15 259.42 807.201 263.476 C 807.202 264.736 807.204 265.995 807.205 267.293 C 807.304 275.944 807.304 275.944 811.811 282.968 C 816.033 285.154 820.003 285.157 824.561 284.093 C 825.633 283.722 826.706 283.351 827.811 282.968 C 830.748 282.843 830.748 282.843 832.811 282.968 C 834.091 286.81 834.034 290.464 834.061 294.468 C 834.081 295.24 834.102 296.013 834.123 296.808 C 834.163 302.507 834.163 302.507 832.513 304.67 C 827.702 308.339 818.638 307.151 812.811 307.156 C 811.96 307.168 811.109 307.18 810.232 307.193 C 803.014 307.21 795.691 306.601 789.811 301.968 C 789.186 299.843 789.186 299.843 788.811 297.968 C 787.821 297.638 786.831 297.308 785.811 296.968 C 784.678 294.64 784.678 294.64 783.686 291.718 C 783.353 290.764 783.02 289.811 782.678 288.828 C 781.213 283.997 780.687 279.67 780.697 274.618 C 780.697 273.357 780.697 272.096 780.697 270.797 C 780.702 269.431 780.708 268.065 780.713 266.699 C 780.715 265.293 780.716 263.888 780.717 262.483 C 780.721 258.795 780.731 255.108 780.742 251.421 C 780.752 247.653 780.757 243.886 780.762 240.119 C 780.772 232.735 780.789 225.352 780.811 217.968 C 779.667 217.98 778.524 217.992 777.346 218.003 C 775.855 218.013 774.364 218.022 772.873 218.031 C 772.118 218.039 771.364 218.048 770.586 218.056 C 768.661 218.065 766.735 218.021 764.811 217.968 C 763.26 216.418 763.681 214.938 763.678 212.785 C 763.676 211.94 763.675 211.095 763.674 210.224 C 763.68 208.891 763.68 208.891 763.686 207.531 C 763.682 206.646 763.678 205.761 763.674 204.849 C 763.676 203.58 763.676 203.58 763.678 202.285 C 763.679 201.506 763.68 200.726 763.681 199.924 C 763.811 197.968 763.811 197.968 764.811 195.968 C 770.091 195.968 775.371 195.968 780.811 195.968 C 780.799 194.031 780.787 192.093 780.775 190.097 C 780.766 187.575 780.757 185.053 780.748 182.531 C 780.74 181.251 780.731 179.972 780.723 178.654 C 780.719 177.439 780.716 176.224 780.713 174.972 C 780.705 173.283 780.705 173.283 780.697 171.56 C 780.899 166.94 783.023 167.84 787.123 167.836 Z" fill="#FEFEFE" style="stroke-width: 1;"/>
    <path d="M 846.811 195.968 C 855.061 195.968 863.311 195.968 871.811 195.968 C 873.367 197.524 872.94 199.01 872.944 201.175 C 872.949 202.082 872.953 202.99 872.957 203.924 C 872.957 204.928 872.956 205.931 872.956 206.964 C 872.959 208.015 872.963 209.065 872.966 210.147 C 872.976 213.638 872.977 217.129 872.979 220.621 C 872.982 223.036 872.985 225.451 872.989 227.866 C 872.995 232.936 872.996 238.006 872.996 243.076 C 872.996 249.588 873.009 256.1 873.027 262.612 C 873.038 267.602 873.04 272.592 873.039 277.582 C 873.04 279.983 873.045 282.385 873.053 284.786 C 873.062 288.139 873.06 291.491 873.053 294.843 C 873.059 295.844 873.065 296.845 873.071 297.877 C 873.066 298.787 873.062 299.697 873.058 300.634 C 873.058 301.428 873.059 302.221 873.059 303.038 C 872.811 304.968 872.811 304.968 870.811 306.968 C 862.891 306.968 854.971 306.968 846.811 306.968 C 846.811 270.338 846.811 233.708 846.811 195.968 Z" fill="#FEFEFE" style="stroke-width: 1;"/>
    <path d="M 28.811 298.968 C 30.131 298.968 31.451 298.968 32.811 298.968 C 32.357 304.904 31.517 310.246 29.811 315.968 C 29.292 318.747 28.821 321.529 28.373 324.32 C 27.296 329.392 25.799 332.576 21.811 335.968 C 19.365 337.461 19.365 337.461 16.686 338.843 C 13.005 340.783 9.413 342.784 5.873 344.968 C 1.253 347.774 -3.503 350.207 -8.357 352.582 C -10.802 353.779 -13.214 355.022 -15.627 356.281 C -21.457 359.042 -21.457 359.042 -24.189 358.968 C -26.92 356.929 -26.92 356.929 -29.189 353.968 C -29.014 351.115 -28.648 349.199 -27.814 346.531 C -27.396 345.03 -26.981 343.529 -26.568 342.027 C -26.34 341.221 -26.112 340.415 -25.877 339.585 C -25.135 336.76 -24.539 333.93 -23.967 331.066 C -23.764 330.075 -23.562 329.083 -23.353 328.062 C -22.957 326.108 -22.575 324.152 -22.206 322.193 C -20.802 315.557 -20.802 315.557 -17.842 312.711 C -14.451 311.762 -13.337 312.497 -10.189 313.968 C 1.625 315.668 8.143 312.916 17.811 305.968 C 19.716 304.803 21.631 303.656 23.561 302.531 C 26.351 300.965 26.351 300.965 28.811 298.968 Z" fill="#FEFEFE" style="stroke-width: 1;"/>
    <path d="M -135.19 273.968 C -129.45 274.601 -124.24 276.057 -118.75 277.843 C -117.94 278.1 -117.14 278.356 -116.31 278.621 C -113.93 279.384 -111.56 280.175 -109.19 280.968 C -108.42 281.207 -107.64 281.446 -106.84 281.692 C -104.65 282.414 -104.65 282.414 -101.19 283.968 C -100.29 286.33 -100.05 287.494 -100.76 289.933 C -105.5 298.329 -114 300.064 -122.75 302.656 C -123.54 302.866 -124.32 303.076 -125.13 303.293 C -127.46 303.955 -127.46 303.955 -130.19 305.968 C -134.63 307.475 -138.5 308.405 -143.19 307.968 C -143.85 307.308 -144.51 306.648 -145.19 305.968 C -145.19 299.085 -143.45 293.073 -141.31 286.593 C -140.93 285.416 -140.93 285.416 -140.54 284.214 C -139.21 280.333 -137.97 277.081 -135.19 273.968 Z" fill="#FEFEFE" style="stroke-width: 1;"/>
    <path d="M 864.811 148.968 C 869.889 151.747 872.974 154.458 874.811 159.968 C 875.179 165.587 875.002 169.125 871.811 173.968 C 868.577 176.953 865.214 179.795 860.697 180.121 C 854.936 179.558 850.945 178.114 846.811 173.968 C 843.769 169.553 842.902 165.244 843.811 159.968 C 845.743 154.587 848.791 151.745 853.811 148.968 C 857.675 147.68 860.922 148.011 864.811 148.968 Z" fill="#FEFEFE" style="stroke-width: 1;"/>
  </g>
</svg>